<?xml version="1.0" encoding="UTF-8" standalone="no"?>
<!DOCTYPE svg PUBLIC "-//W3C//DTD SVG 1.1//EN"
 "http://www.w3.org/Graphics/SVG/1.1/DTD/svg11.dtd">
<!-- Generated by graphviz version 2.40.1 (20161225.0304)
 -->
<!-- Title: %0 Pages: 1 -->
<svg width="1147pt" height="1948pt"
 viewBox="0.00 0.00 1146.65 1948.00" xmlns="http://www.w3.org/2000/svg" xmlns:xlink="http://www.w3.org/1999/xlink">
<g id="graph0" class="graph" transform="scale(1 1) rotate(0) translate(144 1804)">
<title>%0</title>
<polygon fill="#ffffff" stroke="transparent" points="-144,144 -144,-1804 1002.6524,-1804 1002.6524,144 -144,144"/>
<!-- admins -->
<g id="node1" class="node">
<title>admins</title>
<polygon fill="#4477c9" stroke="transparent" points="0,-950 0,-1128 71,-1128 71,-950 0,-950"/>
<polygon fill="#add8e6" stroke="transparent" points=".5,-1110 .5,-1128 71.5,-1128 71.5,-1110 .5,-1110"/>
<polygon fill="none" stroke="#000000" points=".5,-1110 .5,-1128 71.5,-1128 71.5,-1110 .5,-1110"/>
<text text-anchor="start" x="20.7513" y="-1116.9" font-family="Times,serif" font-weight="bold" font-style="italic" font-size="9.00" fill="#000000"> admins </text>
<polygon fill="none" stroke="#000000" points=".5,-1090 .5,-1110 71.5,-1110 71.5,-1090 .5,-1090"/>
<text text-anchor="start" x="5.3825" y="-1096.9" font-family="Times,serif" font-size="9.00" fill="#000000">username: String</text>
<polygon fill="none" stroke="#000000" points=".5,-1070 .5,-1090 71.5,-1090 71.5,-1070 .5,-1070"/>
<text text-anchor="start" x="5.5" y="-1076.9" font-family="Times,serif" font-size="9.00" fill="#000000">email: String</text>
<polygon fill="none" stroke="#000000" points=".5,-1050 .5,-1070 71.5,-1070 71.5,-1050 .5,-1050"/>
<text text-anchor="start" x="5.5" y="-1056.9" font-family="Times,serif" font-size="9.00" fill="#000000">password: String</text>
<polygon fill="none" stroke="#000000" points=".5,-1030 .5,-1050 71.5,-1050 71.5,-1030 .5,-1030"/>
<text text-anchor="start" x="5.5" y="-1036.9" font-family="Times,serif" font-size="9.00" fill="#000000">role: String</text>
<polygon fill="none" stroke="#000000" points=".5,-1010 .5,-1030 71.5,-1030 71.5,-1010 .5,-1010"/>
<text text-anchor="start" x="5.5" y="-1016.9" font-family="Times,serif" font-size="9.00" fill="#000000">_id: ObjectId</text>
<polygon fill="none" stroke="#000000" points=".5,-990 .5,-1010 71.5,-1010 71.5,-990 .5,-990"/>
<text text-anchor="start" x="5.5" y="-996.9" font-family="Times,serif" font-size="9.00" fill="#000000">createdAt: Date</text>
<polygon fill="none" stroke="#000000" points=".5,-970 .5,-990 71.5,-990 71.5,-970 .5,-970"/>
<text text-anchor="start" x="5.5" y="-976.9" font-family="Times,serif" font-size="9.00" fill="#000000">updatedAt: Date</text>
<polygon fill="none" stroke="#000000" points=".5,-950 .5,-970 71.5,-970 71.5,-950 .5,-950"/>
<text text-anchor="start" x="5.5" y="-956.9" font-family="Times,serif" font-size="9.00" fill="#000000">__v: Number</text>
</g>
<!-- inventories -->
<g id="node4" class="node">
<title>inventories</title>
<polygon fill="#4477c9" stroke="transparent" points="523.3564,-1463 523.3564,-1621 608.3564,-1621 608.3564,-1463 523.3564,-1463"/>
<polygon fill="#add8e6" stroke="transparent" points="523.8564,-1603 523.8564,-1621 608.8564,-1621 608.8564,-1603 523.8564,-1603"/>
<polygon fill="none" stroke="#000000" points="523.8564,-1603 523.8564,-1621 608.8564,-1621 608.8564,-1603 523.8564,-1603"/>
<text text-anchor="start" x="544.1115" y="-1609.9" font-family="Times,serif" font-weight="bold" font-style="italic" font-size="9.00" fill="#000000"> inventories </text>
<polygon fill="none" stroke="#000000" points="523.8564,-1583 523.8564,-1603 608.8564,-1603 608.8564,-1583 523.8564,-1583"/>
<text text-anchor="start" x="528.7413" y="-1589.9" font-family="Times,serif" font-size="9.00" fill="#000000">product_id: ObjectId</text>
<polygon fill="none" stroke="#000000" points="523.8564,-1563 523.8564,-1583 608.8564,-1583 608.8564,-1563 523.8564,-1563"/>
<text text-anchor="start" x="528.8564" y="-1569.9" font-family="Times,serif" font-size="9.00" fill="#000000">quantity: Number</text>
<polygon fill="none" stroke="#000000" points="523.8564,-1543 523.8564,-1563 608.8564,-1563 608.8564,-1543 523.8564,-1543"/>
<text text-anchor="start" x="528.7413" y="-1549.9" font-family="Times,serif" font-size="9.00" fill="#000000">updatedBy: ObjectId</text>
<polygon fill="none" stroke="#000000" points="523.8564,-1523 523.8564,-1543 608.8564,-1543 608.8564,-1523 523.8564,-1523"/>
<text text-anchor="start" x="528.8564" y="-1529.9" font-family="Times,serif" font-size="9.00" fill="#000000">_id: ObjectId</text>
<polygon fill="none" stroke="#000000" points="523.8564,-1503 523.8564,-1523 608.8564,-1523 608.8564,-1503 523.8564,-1503"/>
<text text-anchor="start" x="528.8564" y="-1509.9" font-family="Times,serif" font-size="9.00" fill="#000000">createdAt: Date</text>
<polygon fill="none" stroke="#000000" points="523.8564,-1483 523.8564,-1503 608.8564,-1503 608.8564,-1483 523.8564,-1483"/>
<text text-anchor="start" x="528.8564" y="-1489.9" font-family="Times,serif" font-size="9.00" fill="#000000">updatedAt: Date</text>
<polygon fill="none" stroke="#000000" points="523.8564,-1463 523.8564,-1483 608.8564,-1483 608.8564,-1463 523.8564,-1463"/>
<text text-anchor="start" x="528.8564" y="-1469.9" font-family="Times,serif" font-size="9.00" fill="#000000">__v: Number</text>
</g>
<!-- admins&#45;&gt;inventories -->
<g id="edge3" class="edge">
<title>admins:4&#45;&gt;inventories:2</title>
<path fill="none" stroke="#000000" stroke-dasharray="5,2" d="M71,-1020C76.5797,-1020 365.9221,-1284.5145 370.2792,-1288 419.3202,-1327.2305 450.9646,-1317.4523 485.3564,-1370 530.8716,-1439.5433 440.7426,-1553 523.8564,-1553"/>
<text text-anchor="middle" x="280.6256" y="-1256.2" font-family="Times,serif" font-size="14.00" fill="#000000">admins&#45;inventories</text>
<text text-anchor="middle" x="518.8031" y="-1557.2" font-family="Times,serif" font-size="14.00" fill="#000000">N</text>
<text text-anchor="middle" x="74.5" y="-1007.4" font-family="Times,serif" font-size="14.00" fill="#000000">1</text>
</g>
<!-- returns -->
<g id="node9" class="node">
<title>returns</title>
<polygon fill="#4477c9" stroke="transparent" points="238.1256,0 238.1256,-178 323.1256,-178 323.1256,0 238.1256,0"/>
<polygon fill="#add8e6" stroke="transparent" points="238.6256,-160 238.6256,-178 323.6256,-178 323.6256,-160 238.6256,-160"/>
<polygon fill="none" stroke="#000000" points="238.6256,-160 238.6256,-178 323.6256,-178 323.6256,-160 238.6256,-160"/>
<text text-anchor="start" x="266.3813" y="-166.9" font-family="Times,serif" font-weight="bold" font-style="italic" font-size="9.00" fill="#000000"> returns </text>
<polygon fill="none" stroke="#000000" points="238.6256,-140 238.6256,-160 323.6256,-160 323.6256,-140 238.6256,-140"/>
<text text-anchor="start" x="243.6256" y="-146.9" font-family="Times,serif" font-size="9.00" fill="#000000">order_id: ObjectId</text>
<polygon fill="none" stroke="#000000" points="238.6256,-120 238.6256,-140 323.6256,-140 323.6256,-120 238.6256,-120"/>
<text text-anchor="start" x="243.6256" y="-126.9" font-family="Times,serif" font-size="9.00" fill="#000000">reason: String</text>
<polygon fill="none" stroke="#000000" points="238.6256,-100 238.6256,-120 323.6256,-120 323.6256,-100 238.6256,-100"/>
<text text-anchor="start" x="243.6256" y="-106.9" font-family="Times,serif" font-size="9.00" fill="#000000">status: String</text>
<polygon fill="none" stroke="#000000" points="238.6256,-80 238.6256,-100 323.6256,-100 323.6256,-80 238.6256,-80"/>
<text text-anchor="start" x="243.5105" y="-86.9" font-family="Times,serif" font-size="9.00" fill="#000000">handledBy: ObjectId</text>
<polygon fill="none" stroke="#000000" points="238.6256,-60 238.6256,-80 323.6256,-80 323.6256,-60 238.6256,-60"/>
<text text-anchor="start" x="243.6256" y="-66.9" font-family="Times,serif" font-size="9.00" fill="#000000">_id: ObjectId</text>
<polygon fill="none" stroke="#000000" points="238.6256,-40 238.6256,-60 323.6256,-60 323.6256,-40 238.6256,-40"/>
<text text-anchor="start" x="243.6256" y="-46.9" font-family="Times,serif" font-size="9.00" fill="#000000">createdAt: Date</text>
<polygon fill="none" stroke="#000000" points="238.6256,-20 238.6256,-40 323.6256,-40 323.6256,-20 238.6256,-20"/>
<text text-anchor="start" x="243.6256" y="-26.9" font-family="Times,serif" font-size="9.00" fill="#000000">updatedAt: Date</text>
<polygon fill="none" stroke="#000000" points="238.6256,0 238.6256,-20 323.6256,-20 323.6256,0 238.6256,0"/>
<text text-anchor="start" x="243.6256" y="-6.9" font-family="Times,serif" font-size="9.00" fill="#000000">__v: Number</text>
</g>
<!-- admins&#45;&gt;returns -->
<g id="edge12" class="edge">
<title>admins:4&#45;&gt;returns:3</title>
<path fill="none" stroke="#000000" stroke-dasharray="5,2" d="M71,-1020C490.9937,-1020 -181.3681,-90 238.6256,-90"/>
<text text-anchor="middle" x="148.986" y="-1019.2" font-family="Times,serif" font-size="14.00" fill="#000000">admins&#45;returns</text>
<text text-anchor="middle" x="233.5723" y="-77.4" font-family="Times,serif" font-size="14.00" fill="#000000">N</text>
<text text-anchor="middle" x="74.5" y="-1024.2" font-family="Times,serif" font-size="14.00" fill="#000000">1</text>
</g>
<!-- carts -->
<g id="node2" class="node">
<title>carts</title>
<polygon fill="#4477c9" stroke="transparent" points="529.8564,-1003 529.8564,-1141 601.8564,-1141 601.8564,-1003 529.8564,-1003"/>
<polygon fill="#add8e6" stroke="transparent" points="529.8564,-1123 529.8564,-1141 601.8564,-1141 601.8564,-1123 529.8564,-1123"/>
<polygon fill="none" stroke="#000000" points="529.8564,-1123 529.8564,-1141 601.8564,-1141 601.8564,-1123 529.8564,-1123"/>
<text text-anchor="start" x="555.1126" y="-1129.9" font-family="Times,serif" font-weight="bold" font-style="italic" font-size="9.00" fill="#000000"> carts </text>
<polygon fill="none" stroke="#000000" points="529.8564,-1103 529.8564,-1123 601.8564,-1123 601.8564,-1103 529.8564,-1103"/>
<text text-anchor="start" x="534.4918" y="-1109.9" font-family="Times,serif" font-size="9.00" fill="#000000">user_id: ObjectId</text>
<polygon fill="none" stroke="#000000" points="529.8564,-1083 529.8564,-1103 601.8564,-1103 601.8564,-1083 529.8564,-1083"/>
<text text-anchor="start" x="534.8564" y="-1089.9" font-family="Times,serif" font-size="9.00" fill="#000000">items: Array</text>
<polygon fill="none" stroke="#000000" points="529.8564,-1063 529.8564,-1083 601.8564,-1083 601.8564,-1063 529.8564,-1063"/>
<text text-anchor="start" x="534.8564" y="-1069.9" font-family="Times,serif" font-size="9.00" fill="#000000">_id: ObjectId</text>
<polygon fill="none" stroke="#000000" points="529.8564,-1043 529.8564,-1063 601.8564,-1063 601.8564,-1043 529.8564,-1043"/>
<text text-anchor="start" x="534.8564" y="-1049.9" font-family="Times,serif" font-size="9.00" fill="#000000">createdAt: Date</text>
<polygon fill="none" stroke="#000000" points="529.8564,-1023 529.8564,-1043 601.8564,-1043 601.8564,-1023 529.8564,-1023"/>
<text text-anchor="start" x="534.8564" y="-1029.9" font-family="Times,serif" font-size="9.00" fill="#000000">updatedAt: Date</text>
<polygon fill="none" stroke="#000000" points="529.8564,-1003 529.8564,-1023 601.8564,-1023 601.8564,-1003 529.8564,-1003"/>
<text text-anchor="start" x="534.8564" y="-1009.9" font-family="Times,serif" font-size="9.00" fill="#000000">__v: Number</text>
</g>
<!-- coupons -->
<g id="node3" class="node">
<title>coupons</title>
<polygon fill="#4477c9" stroke="transparent" points="232.6256,-250 232.6256,-428 328.6256,-428 328.6256,-250 232.6256,-250"/>
<polygon fill="#add8e6" stroke="transparent" points="232.6256,-410 232.6256,-428 328.6256,-428 328.6256,-410 232.6256,-410"/>
<polygon fill="none" stroke="#000000" points="232.6256,-410 232.6256,-428 328.6256,-428 328.6256,-410 232.6256,-410"/>
<text text-anchor="start" x="263.378" y="-416.9" font-family="Times,serif" font-weight="bold" font-style="italic" font-size="9.00" fill="#000000"> coupons </text>
<polygon fill="none" stroke="#000000" points="232.6256,-390 232.6256,-410 328.6256,-410 328.6256,-390 232.6256,-390"/>
<text text-anchor="start" x="237.6256" y="-396.9" font-family="Times,serif" font-size="9.00" fill="#000000">code: String</text>
<polygon fill="none" stroke="#000000" points="232.6256,-370 232.6256,-390 328.6256,-390 328.6256,-370 232.6256,-370"/>
<text text-anchor="start" x="237.6256" y="-376.9" font-family="Times,serif" font-size="9.00" fill="#000000">discountType: String</text>
<polygon fill="none" stroke="#000000" points="232.6256,-350 232.6256,-370 328.6256,-370 328.6256,-350 232.6256,-350"/>
<text text-anchor="start" x="237.5124" y="-356.9" font-family="Times,serif" font-size="9.00" fill="#000000">discountValue: Number</text>
<polygon fill="none" stroke="#000000" points="232.6256,-330 232.6256,-350 328.6256,-350 328.6256,-330 232.6256,-330"/>
<text text-anchor="start" x="237.6256" y="-336.9" font-family="Times,serif" font-size="9.00" fill="#000000">expirationDate: Date</text>
<polygon fill="none" stroke="#000000" points="232.6256,-310 232.6256,-330 328.6256,-330 328.6256,-310 232.6256,-310"/>
<text text-anchor="start" x="237.6256" y="-316.9" font-family="Times,serif" font-size="9.00" fill="#000000">_id: ObjectId</text>
<polygon fill="none" stroke="#000000" points="232.6256,-290 232.6256,-310 328.6256,-310 328.6256,-290 232.6256,-290"/>
<text text-anchor="start" x="237.6256" y="-296.9" font-family="Times,serif" font-size="9.00" fill="#000000">createdAt: Date</text>
<polygon fill="none" stroke="#000000" points="232.6256,-270 232.6256,-290 328.6256,-290 328.6256,-270 232.6256,-270"/>
<text text-anchor="start" x="237.6256" y="-276.9" font-family="Times,serif" font-size="9.00" fill="#000000">updatedAt: Date</text>
<polygon fill="none" stroke="#000000" points="232.6256,-250 232.6256,-270 328.6256,-270 328.6256,-250 232.6256,-250"/>
<text text-anchor="start" x="237.6256" y="-256.9" font-family="Times,serif" font-size="9.00" fill="#000000">__v: Number</text>
</g>
<!-- orders -->
<g id="node6" class="node">
<title>orders</title>
<polygon fill="#4477c9" stroke="transparent" points="521.3564,-92 521.3564,-330 610.3564,-330 610.3564,-92 521.3564,-92"/>
<polygon fill="#add8e6" stroke="transparent" points="521.8564,-312 521.8564,-330 610.8564,-330 610.8564,-312 521.8564,-312"/>
<polygon fill="none" stroke="#000000" points="521.8564,-312 521.8564,-330 610.8564,-330 610.8564,-312 521.8564,-312"/>
<text text-anchor="start" x="552.8627" y="-318.9" font-family="Times,serif" font-weight="bold" font-style="italic" font-size="9.00" fill="#000000"> orders </text>
<polygon fill="none" stroke="#000000" points="521.8564,-292 521.8564,-312 610.8564,-312 610.8564,-292 521.8564,-292"/>
<text text-anchor="start" x="526.8564" y="-298.9" font-family="Times,serif" font-size="9.00" fill="#000000">user_id: ObjectId</text>
<polygon fill="none" stroke="#000000" points="521.8564,-272 521.8564,-292 610.8564,-292 610.8564,-272 521.8564,-272"/>
<text text-anchor="start" x="526.8564" y="-278.9" font-family="Times,serif" font-size="9.00" fill="#000000">items: Array</text>
<polygon fill="none" stroke="#000000" points="521.8564,-252 521.8564,-272 610.8564,-272 610.8564,-252 521.8564,-252"/>
<text text-anchor="start" x="526.4873" y="-258.9" font-family="Times,serif" font-size="9.00" fill="#000000">totalAmount: Number</text>
<polygon fill="none" stroke="#000000" points="521.8564,-232 521.8564,-252 610.8564,-252 610.8564,-232 521.8564,-232"/>
<text text-anchor="start" x="526.8564" y="-238.9" font-family="Times,serif" font-size="9.00" fill="#000000">coupon_id: ObjectId</text>
<polygon fill="none" stroke="#000000" points="521.8564,-212 521.8564,-232 610.8564,-232 610.8564,-212 521.8564,-212"/>
<text text-anchor="start" x="526.8564" y="-218.9" font-family="Times,serif" font-size="9.00" fill="#000000">payment_id: ObjectId</text>
<polygon fill="none" stroke="#000000" points="521.8564,-192 521.8564,-212 610.8564,-212 610.8564,-192 521.8564,-192"/>
<text text-anchor="start" x="526.8564" y="-198.9" font-family="Times,serif" font-size="9.00" fill="#000000">return_id: ObjectId</text>
<polygon fill="none" stroke="#000000" points="521.8564,-172 521.8564,-192 610.8564,-192 610.8564,-172 521.8564,-172"/>
<text text-anchor="start" x="526.8564" y="-178.9" font-family="Times,serif" font-size="9.00" fill="#000000">status: String</text>
<polygon fill="none" stroke="#000000" points="521.8564,-152 521.8564,-172 610.8564,-172 610.8564,-152 521.8564,-152"/>
<text text-anchor="start" x="526.8564" y="-158.9" font-family="Times,serif" font-size="9.00" fill="#000000">_id: ObjectId</text>
<polygon fill="none" stroke="#000000" points="521.8564,-132 521.8564,-152 610.8564,-152 610.8564,-132 521.8564,-132"/>
<text text-anchor="start" x="526.8564" y="-138.9" font-family="Times,serif" font-size="9.00" fill="#000000">createdAt: Date</text>
<polygon fill="none" stroke="#000000" points="521.8564,-112 521.8564,-132 610.8564,-132 610.8564,-112 521.8564,-112"/>
<text text-anchor="start" x="526.8564" y="-118.9" font-family="Times,serif" font-size="9.00" fill="#000000">updatedAt: Date</text>
<polygon fill="none" stroke="#000000" points="521.8564,-92 521.8564,-112 610.8564,-112 610.8564,-92 521.8564,-92"/>
<text text-anchor="start" x="526.8564" y="-98.9" font-family="Times,serif" font-size="9.00" fill="#000000">__v: Number</text>
</g>
<!-- coupons&#45;&gt;orders -->
<g id="edge6" class="edge">
<title>coupons:4&#45;&gt;orders:3</title>
<path fill="none" stroke="#000000" stroke-dasharray="5,2" d="M328.6256,-320C374.9322,-320 475.5498,-242 521.8564,-242"/>
<text text-anchor="middle" x="427.8178" y="-310.2" font-family="Times,serif" font-size="14.00" fill="#000000">coupons&#45;orders</text>
<text text-anchor="middle" x="516.8031" y="-229.4" font-family="Times,serif" font-size="14.00" fill="#000000">N</text>
<text text-anchor="middle" x="332.1256" y="-307.4" font-family="Times,serif" font-size="14.00" fill="#000000">1</text>
</g>
<!-- notifications -->
<g id="node5" class="node">
<title>notifications</title>
<polygon fill="#4477c9" stroke="transparent" points="529.8564,-773 529.8564,-931 601.8564,-931 601.8564,-773 529.8564,-773"/>
<polygon fill="#add8e6" stroke="transparent" points="529.8564,-913 529.8564,-931 601.8564,-931 601.8564,-913 529.8564,-913"/>
<polygon fill="none" stroke="#000000" points="529.8564,-913 529.8564,-931 601.8564,-931 601.8564,-913 529.8564,-913"/>
<text text-anchor="start" x="541.1104" y="-919.9" font-family="Times,serif" font-weight="bold" font-style="italic" font-size="9.00" fill="#000000"> notifications </text>
<polygon fill="none" stroke="#000000" points="529.8564,-893 529.8564,-913 601.8564,-913 601.8564,-893 529.8564,-893"/>
<text text-anchor="start" x="534.4918" y="-899.9" font-family="Times,serif" font-size="9.00" fill="#000000">user_id: ObjectId</text>
<polygon fill="none" stroke="#000000" points="529.8564,-873 529.8564,-893 601.8564,-893 601.8564,-873 529.8564,-873"/>
<text text-anchor="start" x="534.8564" y="-879.9" font-family="Times,serif" font-size="9.00" fill="#000000">message: String</text>
<polygon fill="none" stroke="#000000" points="529.8564,-853 529.8564,-873 601.8564,-873 601.8564,-853 529.8564,-853"/>
<text text-anchor="start" x="534.8564" y="-859.9" font-family="Times,serif" font-size="9.00" fill="#000000">isRead: Boolean</text>
<polygon fill="none" stroke="#000000" points="529.8564,-833 529.8564,-853 601.8564,-853 601.8564,-833 529.8564,-833"/>
<text text-anchor="start" x="534.8564" y="-839.9" font-family="Times,serif" font-size="9.00" fill="#000000">_id: ObjectId</text>
<polygon fill="none" stroke="#000000" points="529.8564,-813 529.8564,-833 601.8564,-833 601.8564,-813 529.8564,-813"/>
<text text-anchor="start" x="534.8564" y="-819.9" font-family="Times,serif" font-size="9.00" fill="#000000">createdAt: Date</text>
<polygon fill="none" stroke="#000000" points="529.8564,-793 529.8564,-813 601.8564,-813 601.8564,-793 529.8564,-793"/>
<text text-anchor="start" x="534.8564" y="-799.9" font-family="Times,serif" font-size="9.00" fill="#000000">updatedAt: Date</text>
<polygon fill="none" stroke="#000000" points="529.8564,-773 529.8564,-793 601.8564,-793 601.8564,-773 529.8564,-773"/>
<text text-anchor="start" x="534.8564" y="-779.9" font-family="Times,serif" font-size="9.00" fill="#000000">__v: Number</text>
</g>
<!-- payments -->
<g id="node7" class="node">
<title>payments</title>
<polygon fill="#4477c9" stroke="transparent" points="775.6524,-186 775.6524,-404 858.6524,-404 858.6524,-186 775.6524,-186"/>
<polygon fill="#add8e6" stroke="transparent" points="776.1524,-386 776.1524,-404 859.1524,-404 859.1524,-386 776.1524,-386"/>
<polygon fill="none" stroke="#000000" points="776.1524,-386 776.1524,-404 859.1524,-404 859.1524,-386 776.1524,-386"/>
<text text-anchor="start" x="798.1561" y="-392.9" font-family="Times,serif" font-weight="bold" font-style="italic" font-size="9.00" fill="#000000"> payments </text>
<polygon fill="none" stroke="#000000" points="776.1524,-366 776.1524,-386 859.1524,-386 859.1524,-366 776.1524,-366"/>
<text text-anchor="start" x="781.1524" y="-372.9" font-family="Times,serif" font-size="9.00" fill="#000000">user_id: ObjectId</text>
<polygon fill="none" stroke="#000000" points="776.1524,-346 776.1524,-366 859.1524,-366 859.1524,-346 776.1524,-346"/>
<text text-anchor="start" x="781.1524" y="-352.9" font-family="Times,serif" font-size="9.00" fill="#000000">order_id: ObjectId</text>
<polygon fill="none" stroke="#000000" points="776.1524,-326 776.1524,-346 859.1524,-346 859.1524,-326 776.1524,-326"/>
<text text-anchor="start" x="781.1524" y="-332.9" font-family="Times,serif" font-size="9.00" fill="#000000">amount: Number</text>
<polygon fill="none" stroke="#000000" points="776.1524,-306 776.1524,-326 859.1524,-326 859.1524,-306 776.1524,-306"/>
<text text-anchor="start" x="781.1524" y="-312.9" font-family="Times,serif" font-size="9.00" fill="#000000">method: String</text>
<polygon fill="none" stroke="#000000" points="776.1524,-286 776.1524,-306 859.1524,-306 859.1524,-286 776.1524,-286"/>
<text text-anchor="start" x="781.1524" y="-292.9" font-family="Times,serif" font-size="9.00" fill="#000000">status: String</text>
<polygon fill="none" stroke="#000000" points="776.1524,-266 776.1524,-286 859.1524,-286 859.1524,-266 776.1524,-266"/>
<text text-anchor="start" x="780.7857" y="-272.9" font-family="Times,serif" font-size="9.00" fill="#000000">transactionId: String</text>
<polygon fill="none" stroke="#000000" points="776.1524,-246 776.1524,-266 859.1524,-266 859.1524,-246 776.1524,-246"/>
<text text-anchor="start" x="781.1524" y="-252.9" font-family="Times,serif" font-size="9.00" fill="#000000">_id: ObjectId</text>
<polygon fill="none" stroke="#000000" points="776.1524,-226 776.1524,-246 859.1524,-246 859.1524,-226 776.1524,-226"/>
<text text-anchor="start" x="781.1524" y="-232.9" font-family="Times,serif" font-size="9.00" fill="#000000">createdAt: Date</text>
<polygon fill="none" stroke="#000000" points="776.1524,-206 776.1524,-226 859.1524,-226 859.1524,-206 776.1524,-206"/>
<text text-anchor="start" x="781.1524" y="-212.9" font-family="Times,serif" font-size="9.00" fill="#000000">updatedAt: Date</text>
<polygon fill="none" stroke="#000000" points="776.1524,-186 776.1524,-206 859.1524,-206 859.1524,-186 776.1524,-186"/>
<text text-anchor="start" x="781.1524" y="-192.9" font-family="Times,serif" font-size="9.00" fill="#000000">__v: Number</text>
</g>
<!-- orders&#45;&gt;payments -->
<g id="edge10" class="edge">
<title>orders:7&#45;&gt;payments:1</title>
<path fill="none" stroke="#000000" stroke-dasharray="5,2" d="M610.3564,-162C669.2685,-162 698.0818,-149.4565 739.6524,-191.2 792.5889,-244.3567 701.133,-356 776.1524,-356"/>
<text text-anchor="middle" x="693.0044" y="-196.2" font-family="Times,serif" font-size="14.00" fill="#000000">orders&#45;payments</text>
<text text-anchor="middle" x="771.0991" y="-360.2" font-family="Times,serif" font-size="14.00" fill="#000000">N</text>
<text text-anchor="middle" x="613.8564" y="-149.4" font-family="Times,serif" font-size="14.00" fill="#000000">1</text>
</g>
<!-- orders&#45;&gt;returns -->
<g id="edge11" class="edge">
<title>orders:7&#45;&gt;returns:0</title>
<path fill="none" stroke="#000000" stroke-dasharray="5,2" d="M521.8564,-162C433.5925,-162 411.8895,-150 323.6256,-150"/>
<text text-anchor="middle" x="427.8178" y="-166.2" font-family="Times,serif" font-size="14.00" fill="#000000">orders&#45;returns</text>
<text text-anchor="middle" x="328.6789" y="-137.4" font-family="Times,serif" font-size="14.00" fill="#000000">N</text>
<text text-anchor="middle" x="518.3564" y="-149.4" font-family="Times,serif" font-size="14.00" fill="#000000">1</text>
</g>
<!-- payments&#45;&gt;orders -->
<g id="edge7" class="edge">
<title>payments:6&#45;&gt;orders:4</title>
<path fill="none" stroke="#000000" stroke-dasharray="5,2" d="M776.1524,-256C700.9318,-256 685.577,-222 610.3564,-222"/>
<text text-anchor="middle" x="693.0044" y="-256.2" font-family="Times,serif" font-size="14.00" fill="#000000">payments&#45;orders</text>
<text text-anchor="middle" x="615.4097" y="-209.4" font-family="Times,serif" font-size="14.00" fill="#000000">N</text>
<text text-anchor="middle" x="772.6524" y="-260.2" font-family="Times,serif" font-size="14.00" fill="#000000">1</text>
</g>
<!-- products -->
<g id="node8" class="node">
<title>products</title>
<polygon fill="#4477c9" stroke="transparent" points="242.6256,-1442 242.6256,-1660 318.6256,-1660 318.6256,-1442 242.6256,-1442"/>
<polygon fill="#add8e6" stroke="transparent" points="242.6256,-1642 242.6256,-1660 318.6256,-1660 318.6256,-1642 242.6256,-1642"/>
<polygon fill="none" stroke="#000000" points="242.6256,-1642 242.6256,-1660 318.6256,-1660 318.6256,-1642 242.6256,-1642"/>
<text text-anchor="start" x="262.8794" y="-1648.9" font-family="Times,serif" font-weight="bold" font-style="italic" font-size="9.00" fill="#000000"> products </text>
<polygon fill="none" stroke="#000000" points="242.6256,-1622 242.6256,-1642 318.6256,-1642 318.6256,-1622 242.6256,-1622"/>
<text text-anchor="start" x="247.6256" y="-1628.9" font-family="Times,serif" font-size="9.00" fill="#000000">name: String</text>
<polygon fill="none" stroke="#000000" points="242.6256,-1602 242.6256,-1622 318.6256,-1622 318.6256,-1602 242.6256,-1602"/>
<text text-anchor="start" x="247.2545" y="-1608.9" font-family="Times,serif" font-size="9.00" fill="#000000">description: String</text>
<polygon fill="none" stroke="#000000" points="242.6256,-1582 242.6256,-1602 318.6256,-1602 318.6256,-1582 242.6256,-1582"/>
<text text-anchor="start" x="247.6256" y="-1588.9" font-family="Times,serif" font-size="9.00" fill="#000000">price: Number</text>
<polygon fill="none" stroke="#000000" points="242.6256,-1562 242.6256,-1582 318.6256,-1582 318.6256,-1562 242.6256,-1562"/>
<text text-anchor="start" x="247.6256" y="-1568.9" font-family="Times,serif" font-size="9.00" fill="#000000">category: String</text>
<polygon fill="none" stroke="#000000" points="242.6256,-1542 242.6256,-1562 318.6256,-1562 318.6256,-1542 242.6256,-1542"/>
<text text-anchor="start" x="247.6256" y="-1548.9" font-family="Times,serif" font-size="9.00" fill="#000000">stock: Number</text>
<polygon fill="none" stroke="#000000" points="242.6256,-1522 242.6256,-1542 318.6256,-1542 318.6256,-1522 242.6256,-1522"/>
<text text-anchor="start" x="247.6256" y="-1528.9" font-family="Times,serif" font-size="9.00" fill="#000000">reviews: Array</text>
<polygon fill="none" stroke="#000000" points="242.6256,-1502 242.6256,-1522 318.6256,-1522 318.6256,-1502 242.6256,-1502"/>
<text text-anchor="start" x="247.6256" y="-1508.9" font-family="Times,serif" font-size="9.00" fill="#000000">_id: ObjectId</text>
<polygon fill="none" stroke="#000000" points="242.6256,-1482 242.6256,-1502 318.6256,-1502 318.6256,-1482 242.6256,-1482"/>
<text text-anchor="start" x="247.6256" y="-1488.9" font-family="Times,serif" font-size="9.00" fill="#000000">createdAt: Date</text>
<polygon fill="none" stroke="#000000" points="242.6256,-1462 242.6256,-1482 318.6256,-1482 318.6256,-1462 242.6256,-1462"/>
<text text-anchor="start" x="247.6256" y="-1468.9" font-family="Times,serif" font-size="9.00" fill="#000000">updatedAt: Date</text>
<polygon fill="none" stroke="#000000" points="242.6256,-1442 242.6256,-1462 318.6256,-1462 318.6256,-1442 242.6256,-1442"/>
<text text-anchor="start" x="247.6256" y="-1448.9" font-family="Times,serif" font-size="9.00" fill="#000000">__v: Number</text>
</g>
<!-- products&#45;&gt;inventories -->
<g id="edge2" class="edge">
<title>products:6&#45;&gt;inventories:0</title>
<path fill="none" stroke="#000000" stroke-dasharray="5,2" d="M318.6256,-1512C416.6865,-1512 425.7955,-1593 523.8564,-1593"/>
<text text-anchor="middle" x="427.8178" y="-1591.2" font-family="Times,serif" font-size="14.00" fill="#000000">products&#45;inventories</text>
<text text-anchor="middle" x="518.8031" y="-1597.2" font-family="Times,serif" font-size="14.00" fill="#000000">N</text>
<text text-anchor="middle" x="322.1256" y="-1499.4" font-family="Times,serif" font-size="14.00" fill="#000000">1</text>
</g>
<!-- reviews -->
<g id="node10" class="node">
<title>reviews</title>
<polygon fill="#4477c9" stroke="transparent" points="523.3564,-1213 523.3564,-1391 608.3564,-1391 608.3564,-1213 523.3564,-1213"/>
<polygon fill="#add8e6" stroke="transparent" points="523.8564,-1373 523.8564,-1391 608.8564,-1391 608.8564,-1373 523.8564,-1373"/>
<polygon fill="none" stroke="#000000" points="523.8564,-1373 523.8564,-1391 608.8564,-1391 608.8564,-1373 523.8564,-1373"/>
<text text-anchor="start" x="550.1141" y="-1379.9" font-family="Times,serif" font-weight="bold" font-style="italic" font-size="9.00" fill="#000000"> reviews </text>
<polygon fill="none" stroke="#000000" points="523.8564,-1353 523.8564,-1373 608.8564,-1373 608.8564,-1353 523.8564,-1353"/>
<text text-anchor="start" x="528.7413" y="-1359.9" font-family="Times,serif" font-size="9.00" fill="#000000">product_id: ObjectId</text>
<polygon fill="none" stroke="#000000" points="523.8564,-1333 523.8564,-1353 608.8564,-1353 608.8564,-1333 523.8564,-1333"/>
<text text-anchor="start" x="528.8564" y="-1339.9" font-family="Times,serif" font-size="9.00" fill="#000000">user_id: ObjectId</text>
<polygon fill="none" stroke="#000000" points="523.8564,-1313 523.8564,-1333 608.8564,-1333 608.8564,-1313 523.8564,-1313"/>
<text text-anchor="start" x="528.8564" y="-1319.9" font-family="Times,serif" font-size="9.00" fill="#000000">rating: Number</text>
<polygon fill="none" stroke="#000000" points="523.8564,-1293 523.8564,-1313 608.8564,-1313 608.8564,-1293 523.8564,-1293"/>
<text text-anchor="start" x="528.8564" y="-1299.9" font-family="Times,serif" font-size="9.00" fill="#000000">comment: String</text>
<polygon fill="none" stroke="#000000" points="523.8564,-1273 523.8564,-1293 608.8564,-1293 608.8564,-1273 523.8564,-1273"/>
<text text-anchor="start" x="528.8564" y="-1279.9" font-family="Times,serif" font-size="9.00" fill="#000000">_id: ObjectId</text>
<polygon fill="none" stroke="#000000" points="523.8564,-1253 523.8564,-1273 608.8564,-1273 608.8564,-1253 523.8564,-1253"/>
<text text-anchor="start" x="528.8564" y="-1259.9" font-family="Times,serif" font-size="9.00" fill="#000000">createdAt: Date</text>
<polygon fill="none" stroke="#000000" points="523.8564,-1233 523.8564,-1253 608.8564,-1253 608.8564,-1233 523.8564,-1233"/>
<text text-anchor="start" x="528.8564" y="-1239.9" font-family="Times,serif" font-size="9.00" fill="#000000">updatedAt: Date</text>
<polygon fill="none" stroke="#000000" points="523.8564,-1213 523.8564,-1233 608.8564,-1233 608.8564,-1213 523.8564,-1213"/>
<text text-anchor="start" x="528.8564" y="-1219.9" font-family="Times,serif" font-size="9.00" fill="#000000">__v: Number</text>
</g>
<!-- products&#45;&gt;reviews -->
<g id="edge13" class="edge">
<title>products:6&#45;&gt;reviews:0</title>
<path fill="none" stroke="#000000" stroke-dasharray="5,2" d="M318.6256,-1512C374.9845,-1512 467.4975,-1363 523.8564,-1363"/>
<text text-anchor="middle" x="427.8178" y="-1487.2" font-family="Times,serif" font-size="14.00" fill="#000000">products&#45;reviews</text>
<text text-anchor="middle" x="518.8031" y="-1367.2" font-family="Times,serif" font-size="14.00" fill="#000000">N</text>
<text text-anchor="middle" x="322.1256" y="-1516.2" font-family="Times,serif" font-size="14.00" fill="#000000">1</text>
</g>
<!-- returns&#45;&gt;orders -->
<g id="edge8" class="edge">
<title>returns:4&#45;&gt;orders:5</title>
<path fill="none" stroke="#000000" stroke-dasharray="5,2" d="M323.6256,-70C344.6483,-70 349.3285,-63.9393 370.2792,-62.2 421.2493,-57.9685 444.8801,-30.9347 485.3564,-62.2 536.1769,-101.4555 457.6403,-202 521.8564,-202"/>
<text text-anchor="middle" x="427.8178" y="-67.2" font-family="Times,serif" font-size="14.00" fill="#000000">returns&#45;orders</text>
<text text-anchor="middle" x="516.8031" y="-189.4" font-family="Times,serif" font-size="14.00" fill="#000000">N</text>
<text text-anchor="middle" x="327.1256" y="-57.4" font-family="Times,serif" font-size="14.00" fill="#000000">1</text>
</g>
<!-- users -->
<g id="node11" class="node">
<title>users</title>
<polygon fill="#4477c9" stroke="transparent" points="245.1256,-718 245.1256,-916 316.1256,-916 316.1256,-718 245.1256,-718"/>
<polygon fill="#add8e6" stroke="transparent" points="245.6256,-898 245.6256,-916 316.6256,-916 316.6256,-898 245.6256,-898"/>
<polygon fill="none" stroke="#000000" points="245.6256,-898 245.6256,-916 316.6256,-916 316.6256,-898 245.6256,-898"/>
<text text-anchor="start" x="269.6299" y="-904.9" font-family="Times,serif" font-weight="bold" font-style="italic" font-size="9.00" fill="#000000"> users </text>
<polygon fill="none" stroke="#000000" points="245.6256,-878 245.6256,-898 316.6256,-898 316.6256,-878 245.6256,-878"/>
<text text-anchor="start" x="250.508" y="-884.9" font-family="Times,serif" font-size="9.00" fill="#000000">username: String</text>
<polygon fill="none" stroke="#000000" points="245.6256,-858 245.6256,-878 316.6256,-878 316.6256,-858 245.6256,-858"/>
<text text-anchor="start" x="250.6256" y="-864.9" font-family="Times,serif" font-size="9.00" fill="#000000">email: String</text>
<polygon fill="none" stroke="#000000" points="245.6256,-838 245.6256,-858 316.6256,-858 316.6256,-838 245.6256,-838"/>
<text text-anchor="start" x="250.6256" y="-844.9" font-family="Times,serif" font-size="9.00" fill="#000000">password: String</text>
<polygon fill="none" stroke="#000000" points="245.6256,-818 245.6256,-838 316.6256,-838 316.6256,-818 245.6256,-818"/>
<text text-anchor="start" x="250.6256" y="-824.9" font-family="Times,serif" font-size="9.00" fill="#000000">address: String</text>
<polygon fill="none" stroke="#000000" points="245.6256,-798 245.6256,-818 316.6256,-818 316.6256,-798 245.6256,-798"/>
<text text-anchor="start" x="250.6256" y="-804.9" font-family="Times,serif" font-size="9.00" fill="#000000">phone: String</text>
<polygon fill="none" stroke="#000000" points="245.6256,-778 245.6256,-798 316.6256,-798 316.6256,-778 245.6256,-778"/>
<text text-anchor="start" x="250.6256" y="-784.9" font-family="Times,serif" font-size="9.00" fill="#000000">_id: ObjectId</text>
<polygon fill="none" stroke="#000000" points="245.6256,-758 245.6256,-778 316.6256,-778 316.6256,-758 245.6256,-758"/>
<text text-anchor="start" x="250.6256" y="-764.9" font-family="Times,serif" font-size="9.00" fill="#000000">createdAt: Date</text>
<polygon fill="none" stroke="#000000" points="245.6256,-738 245.6256,-758 316.6256,-758 316.6256,-738 245.6256,-738"/>
<text text-anchor="start" x="250.6256" y="-744.9" font-family="Times,serif" font-size="9.00" fill="#000000">updatedAt: Date</text>
<polygon fill="none" stroke="#000000" points="245.6256,-718 245.6256,-738 316.6256,-738 316.6256,-718 245.6256,-718"/>
<text text-anchor="start" x="250.6256" y="-724.9" font-family="Times,serif" font-size="9.00" fill="#000000">__v: Number</text>
</g>
<!-- users&#45;&gt;carts -->
<g id="edge1" class="edge">
<title>users:5&#45;&gt;carts:0</title>
<path fill="none" stroke="#000000" stroke-dasharray="5,2" d="M316.6256,-788C383.2607,-788 336.0847,-870.8076 370.2792,-928 426.0005,-1021.1973 421.2719,-1113 529.8564,-1113"/>
<text text-anchor="middle" x="427.8178" y="-1108.2" font-family="Times,serif" font-size="14.00" fill="#000000">users&#45;carts</text>
<text text-anchor="middle" x="524.8031" y="-1100.4" font-family="Times,serif" font-size="14.00" fill="#000000">N</text>
<text text-anchor="middle" x="320.1256" y="-775.4" font-family="Times,serif" font-size="14.00" fill="#000000">1</text>
</g>
<!-- users&#45;&gt;notifications -->
<g id="edge4" class="edge">
<title>users:5&#45;&gt;notifications:0</title>
<path fill="none" stroke="#000000" stroke-dasharray="5,2" d="M316.6256,-788C424.299,-788 422.183,-903 529.8564,-903"/>
<text text-anchor="middle" x="427.8178" y="-897.2" font-family="Times,serif" font-size="14.00" fill="#000000">users&#45;notifications</text>
<text text-anchor="middle" x="524.8031" y="-890.4" font-family="Times,serif" font-size="14.00" fill="#000000">N</text>
<text text-anchor="middle" x="320.1256" y="-792.2" font-family="Times,serif" font-size="14.00" fill="#000000">1</text>
</g>
<!-- users&#45;&gt;orders -->
<g id="edge5" class="edge">
<title>users:5&#45;&gt;orders:0</title>
<path fill="none" stroke="#000000" stroke-dasharray="5,2" d="M316.6256,-788C401.8636,-788 323.2202,-479.2702 370.2792,-408.2 403.2281,-358.4393 438.4592,-375.9109 485.3564,-339 503.508,-324.7136 498.757,-302 521.8564,-302"/>
<text text-anchor="middle" x="427.8178" y="-412.2" font-family="Times,serif" font-size="14.00" fill="#000000">users&#45;orders</text>
<text text-anchor="middle" x="516.8031" y="-306.2" font-family="Times,serif" font-size="14.00" fill="#000000">N</text>
<text text-anchor="middle" x="313.1256" y="-792.2" font-family="Times,serif" font-size="14.00" fill="#000000">1</text>
</g>
<!-- users&#45;&gt;payments -->
<g id="edge9" class="edge">
<title>users:5&#45;&gt;payments:0</title>
<path fill="none" stroke="#000000" stroke-dasharray="5,2" d="M316.6256,-788C373.8325,-788 338.3518,-718.4687 370.2792,-671 494.7376,-485.9592 553.1502,-376 776.1524,-376"/>
<text text-anchor="middle" x="565.8564" y="-468.2" font-family="Times,serif" font-size="14.00" fill="#000000">users&#45;payments</text>
<text text-anchor="middle" x="771.0991" y="-380.2" font-family="Times,serif" font-size="14.00" fill="#000000">N</text>
<text text-anchor="middle" x="320.1256" y="-792.2" font-family="Times,serif" font-size="14.00" fill="#000000">1</text>
</g>
<!-- users&#45;&gt;reviews -->
<g id="edge14" class="edge">
<title>users:5&#45;&gt;reviews:1</title>
<path fill="none" stroke="#000000" stroke-dasharray="5,2" d="M316.6256,-788C395.5316,-788 335.1184,-1068.361 370.2792,-1139 402.9502,-1204.637 444.1454,-1196.5596 485.3564,-1257.2 508.8494,-1291.7691 482.06,-1343 523.8564,-1343"/>
<text text-anchor="middle" x="427.8178" y="-1261.2" font-family="Times,serif" font-size="14.00" fill="#000000">users&#45;reviews</text>
<text text-anchor="middle" x="518.8031" y="-1347.2" font-family="Times,serif" font-size="14.00" fill="#000000">N</text>
<text text-anchor="middle" x="313.1256" y="-775.4" font-family="Times,serif" font-size="14.00" fill="#000000">1</text>
</g>
<!-- wishlists -->
<g id="node12" class="node">
<title>wishlists</title>
<polygon fill="#4477c9" stroke="transparent" points="529.8564,-563 529.8564,-701 601.8564,-701 601.8564,-563 529.8564,-563"/>
<polygon fill="#add8e6" stroke="transparent" points="529.8564,-683 529.8564,-701 601.8564,-701 601.8564,-683 529.8564,-683"/>
<polygon fill="none" stroke="#000000" points="529.8564,-683 529.8564,-701 601.8564,-701 601.8564,-683 529.8564,-683"/>
<text text-anchor="start" x="547.8555" y="-689.9" font-family="Times,serif" font-weight="bold" font-style="italic" font-size="9.00" fill="#000000"> wishlists </text>
<polygon fill="none" stroke="#000000" points="529.8564,-663 529.8564,-683 601.8564,-683 601.8564,-663 529.8564,-663"/>
<text text-anchor="start" x="534.4918" y="-669.9" font-family="Times,serif" font-size="9.00" fill="#000000">user_id: ObjectId</text>
<polygon fill="none" stroke="#000000" points="529.8564,-643 529.8564,-663 601.8564,-663 601.8564,-643 529.8564,-643"/>
<text text-anchor="start" x="534.8564" y="-649.9" font-family="Times,serif" font-size="9.00" fill="#000000">products: Array</text>
<polygon fill="none" stroke="#000000" points="529.8564,-623 529.8564,-643 601.8564,-643 601.8564,-623 529.8564,-623"/>
<text text-anchor="start" x="534.8564" y="-629.9" font-family="Times,serif" font-size="9.00" fill="#000000">_id: ObjectId</text>
<polygon fill="none" stroke="#000000" points="529.8564,-603 529.8564,-623 601.8564,-623 601.8564,-603 529.8564,-603"/>
<text text-anchor="start" x="534.8564" y="-609.9" font-family="Times,serif" font-size="9.00" fill="#000000">createdAt: Date</text>
<polygon fill="none" stroke="#000000" points="529.8564,-583 529.8564,-603 601.8564,-603 601.8564,-583 529.8564,-583"/>
<text text-anchor="start" x="534.8564" y="-589.9" font-family="Times,serif" font-size="9.00" fill="#000000">updatedAt: Date</text>
<polygon fill="none" stroke="#000000" points="529.8564,-563 529.8564,-583 601.8564,-583 601.8564,-563 529.8564,-563"/>
<text text-anchor="start" x="534.8564" y="-569.9" font-family="Times,serif" font-size="9.00" fill="#000000">__v: Number</text>
</g>
<!-- users&#45;&gt;wishlists -->
<g id="edge15" class="edge">
<title>users:5&#45;&gt;wishlists:0</title>
<path fill="none" stroke="#000000" stroke-dasharray="5,2" d="M316.6256,-788C370.4623,-788 476.0197,-673 529.8564,-673"/>
<text text-anchor="middle" x="427.8178" y="-770.2" font-family="Times,serif" font-size="14.00" fill="#000000">users&#45;wishlists</text>
<text text-anchor="middle" x="524.8031" y="-660.4" font-family="Times,serif" font-size="14.00" fill="#000000">N</text>
<text text-anchor="middle" x="320.1256" y="-775.4" font-family="Times,serif" font-size="14.00" fill="#000000">1</text>
</g>
</g>
</svg>
